<?xml version="1.0" encoding="UTF-8" standalone="no"?>
<!-- Created with Inkscape (http://www.inkscape.org/) -->

<svg
   xmlns:dc="http://purl.org/dc/elements/1.1/"
   xmlns:cc="http://creativecommons.org/ns#"
   xmlns:rdf="http://www.w3.org/1999/02/22-rdf-syntax-ns#"
   xmlns:svg="http://www.w3.org/2000/svg"
   xmlns="http://www.w3.org/2000/svg"
   xmlns:sodipodi="http://sodipodi.sourceforge.net/DTD/sodipodi-0.dtd"
   xmlns:inkscape="http://www.inkscape.org/namespaces/inkscape"
   width="135"
   height="135"
   viewBox="0 0 135 135.00001"
   version="1.1"
   id="svg8"
   inkscape:version="0.92.4 (5da689c313, 2019-01-14)"
   sodipodi:docname="logo-jworg.svg">
  <title
     id="title826">Logo JW.ORG</title>
  <defs
     id="defs2" />
  <sodipodi:namedview
     id="base"
     pagecolor="#ffffff"
     bordercolor="#666666"
     borderopacity="1.0"
     inkscape:pageopacity="0.0"
     inkscape:pageshadow="2"
     inkscape:zoom="1"
     inkscape:cx="254.49547"
     inkscape:cy="108.64209"
     inkscape:document-units="px"
     inkscape:current-layer="layer1"
     showgrid="false"
     units="px"
     inkscape:showpageshadow="false"
     inkscape:window-width="2560"
     inkscape:window-height="1009"
     inkscape:window-x="1272"
     inkscape:window-y="-8"
     inkscape:window-maximized="1" />
  <metadata
     id="metadata5">
    <rdf:RDF>
      <cc:Work
         rdf:about="">
        <dc:format>image/svg+xml</dc:format>
        <dc:type
           rdf:resource="http://purl.org/dc/dcmitype/StillImage" />
        <dc:title>Logo JW.ORG</dc:title>
      </cc:Work>
    </rdf:RDF>
  </metadata>
  <g
     inkscape:label="Layer 1"
     inkscape:groupmode="layer"
     id="layer1"
     transform="translate(0,-987.51965)">
    <path
       inkscape:connector-curvature="0"
       id="path815"
       style="fill:#4a6da7;fill-rule:evenodd;stroke-width:0.26458332"
       d="M 135.01156,987.51967 H 0 V 1122.5313 H 135.01156 Z M 56.991477,1009.996 h 6.421205 l 7.384053,35.3174 10.275314,-33.5525 h 5.136963 l 9.791823,33.5525 c 0.08106,-0.267 0.268299,-1.0705 0.589715,-2.461 0.320007,-1.3652 0.722475,-3.1037 1.176631,-5.2179 0.4821,-2.113 0.990774,-4.388 1.524594,-6.8489 0.563171,-2.4622 1.096985,-4.8966 1.632215,-7.3325 0.53521,-2.4342 1.01734,-4.6546 1.47149,-6.6615 0.45557,-2.0332 0.80352,-3.6389 1.07043,-4.87 0.2683,-1.2312 0.40247,-1.8726 0.40247,-1.9257 h 6.09978 l -11.238159,46.5556 h -5.297649 l -9.791822,-34.8367 -11.077451,34.8367 h -5.136964 z m -32.107416,89.419 h -4.977632 v -4.817 h 4.977632 z m 13.485228,-42.3828 c -1.819444,-0.026 -3.451641,-0.2404 -4.951099,-0.668 -1.471493,-0.4289 -2.782294,-0.9641 -3.958925,-1.6056 -1.17804,-0.6694 -2.220522,-1.3374 -3.130244,-2.0599 l 2.568483,-4.8169 c 1.363898,1.0705 2.808818,1.9536 4.333439,2.623 1.525991,0.6946 3.131634,1.0425 4.816949,1.0705 2.27363,-0.028 4.013413,-0.8302 5.216607,-2.4358 1.231139,-1.6056 1.845998,-3.8793 1.845998,-6.8768 V 1009.996 H 51.2117 v 32.1074 c 0,3.0227 -0.427619,5.6457 -1.337341,7.8661 -0.883185,2.2206 -2.27501,3.959 -4.174116,5.1901 -1.900516,1.2312 -4.334849,1.8461 -7.330954,1.8726 z m 21.671387,10.9168 h 10.275341 c 1.899105,0 3.692012,0.2948 5.32421,0.9363 1.65876,0.6427 2.9961,1.6322 4.013433,2.9974 1.015921,1.3374 1.551149,3.0772 1.577686,5.2167 -0.02653,1.7663 -0.374492,3.2378 -1.069019,4.4159 -0.695939,1.203 -1.632198,2.1673 -2.836803,2.8619 -1.176631,0.7225 -2.48882,1.2311 -3.960308,1.5525 l 8.830364,13.646 h -4.013434 l -8.348259,-13.1652 h -6.421205 v 13.1652 h -3.372006 z m 9.953921,15.573 c 2.354673,-0.028 4.227243,-0.5898 5.592531,-1.7133 1.39044,-1.1236 2.086352,-2.6747 2.112915,-4.7093 0,-1.2298 -0.347956,-2.3003 -0.989384,-3.21 -0.616277,-0.9097 -1.499436,-1.6322 -2.568482,-2.1408 -1.096968,-0.4821 -2.301573,-0.7491 -3.66545,-0.7491 h -7.064045 v 12.5225 z m 29.860349,16.5344 c -2.944389,-0.026 -5.486328,-0.6959 -7.625789,-2.0333 -2.14086,-1.3373 -3.773087,-3.2378 -4.92315,-5.6722 -1.151506,-2.4343 -1.713272,-5.3242 -1.739808,-8.6682 0.02653,-3.1848 0.642813,-5.9936 1.846006,-8.4293 1.204578,-2.4079 2.889873,-4.307 5.030763,-5.6988 2.140871,-1.3639 4.601738,-2.0599 7.411978,-2.0863 1.443534,0 2.782294,0.1872 3.985484,0.5617 1.23114,0.348 2.27501,0.7756 3.2113,1.2842 0.93628,0.5352 1.68529,1.016 2.27362,1.5246 l -2.08638,2.7292 c -0.88316,-0.749 -1.92705,-1.4449 -3.15678,-2.0598 -1.25771,-0.6162 -2.70266,-0.9628 -4.387957,-0.9907 -2.140863,0.028 -4.013435,0.6162 -5.56597,1.7663 -1.551145,1.1767 -2.75572,2.7557 -3.584421,4.7624 -0.856624,1.9802 -1.285626,4.2539 -1.285626,6.7958 0.02799,2.5964 0.4821,4.87 1.391852,6.8767 0.909722,2.0067 2.193959,3.5593 3.799622,4.7093 1.605632,1.1236 3.45164,1.7119 5.56456,1.7385 1.33874,-0.026 2.56989,-0.2934 3.74652,-0.7756 1.15009,-0.5086 2.00671,-1.0439 2.51537,-1.6322 v -8.9897 h -7.546139 v -2.8899 h 10.756059 v 13.4852 c -0.53523,0.5618 -1.28425,1.097 -2.19399,1.6588 -0.93626,0.5618 -2.03325,1.0439 -3.29093,1.4449 -1.25771,0.3745 -2.64815,0.5618 -4.146194,0.5884 z m -59.238571,0 c -2.889899,-0.026 -5.350767,-0.7491 -7.357488,-2.1395 -2.006711,-1.3919 -3.506149,-3.3189 -4.54863,-5.7798 -1.043902,-2.4623 -1.579099,-5.2711 -1.579099,-8.4544 0.02658,-3.2924 0.614859,-6.1278 1.738392,-8.5621 1.151477,-2.4092 2.729196,-4.2818 4.763861,-5.6192 2.006712,-1.3386 4.33344,-2.0067 6.982964,-2.0331 2.808828,0.026 5.216607,0.6945 7.304367,2.0331 2.059816,1.3374 3.638914,3.21 4.789008,5.6192 1.123531,2.4343 1.685297,5.2697 1.713245,8.5621 0,3.1833 -0.508666,5.9921 -1.552535,8.4544 -1.017333,2.4609 -2.568482,4.3879 -4.601734,5.7798 -2.061229,1.3904 -4.601758,2.1129 -7.652351,2.1395 z m 0,-3.0492 c 2.193968,-0.028 4.039976,-0.6163 5.538024,-1.7399 1.525998,-1.15 2.649529,-2.7026 3.425104,-4.7093 0.775575,-2.0067 1.150093,-4.2803 1.150093,-6.8753 0,-2.6496 -0.454181,-4.9511 -1.310803,-6.9033 -0.828675,-1.9803 -2.033254,-3.5062 -3.531303,-4.6032 -1.526001,-1.097 -3.264394,-1.6308 -5.271115,-1.6587 -1.846008,0.028 -3.504759,0.5617 -4.976252,1.6587 -1.472894,1.097 -2.622991,2.6229 -3.479615,4.6032 -0.881768,1.9522 -1.3108,4.2537 -1.337344,6.9033 0,2.595 0.429012,4.8686 1.231148,6.8753 0.802107,2.0067 1.92564,3.5593 3.37059,4.7093 1.471513,1.1236 3.211295,1.7119 5.191473,1.7399 z" />
  </g>
</svg>
